<svg xmlns="http://www.w3.org/2000/svg" xmlns:xlink="http://www.w3.org/1999/xlink" contentStyleType="text/css" height="1899.7917px" preserveAspectRatio="none" style="width:3478px;height:1899px;background:#FFFFFF;" version="1.1" viewBox="0 0 3478 1899" width="3478.75px" zoomAndPan="magnify" xmlns:c2pa="http://c2pa.org/manifest"><metadata><c2pa:manifest>AAAWgmp1bWIAAAAeanVtZGMycGEAEQAQgAAAqgA4m3EDYzJwYQAAABZcanVtYgAAAEdqdW1kYzJtYQARABCAAACqADibcQN1cm46YzJwYTpkYTRlNGFhNS0wNzMyLTQ2NDQtOTY1ZC1jMmI5MGJjNWZmOTkAAAADl2p1bWIAAAApanVtZGMyYXMAEQAQgAAAqgA4m3EDYzJwYS5hc3NlcnRpb25zAAAAALxqdW1iAAAARGp1bWRjYm9yABEAEIAAAKoAOJtxE2MycGEuaW5ncmVkaWVudC52MwAAAAAYYzJzaEMzgb4gn9uj4veu9eTeDvkAAABwY2JvcqNpZGM6Zm9ybWF0bWltYWdlL3N2Zyt4bWxqaW5zdGFuY2VJRHgseG1wOmlpZDpjNjE1YzYzZC0xYTZmLTRjYzEtOTVhZC04NGY3YzNhN2I4NDJscmVsYXRpb25zaGlwaHBhcmVudE9mAAAB4mp1bWIAAABBanVtZGNib3IAEQAQgAAAqgA4m3ETYzJwYS5hY3Rpb25zLnYyAAAAABhjMnNocFW/nkKF1FlLXeIQi7PibgAAAZljYm9yomdhY3Rpb25zgqJmYWN0aW9ua2MycGEub3BlbmVkanBhcmFtZXRlcnOha2luZ3JlZGllbnRzgaJjdXJseC1zZWxmI2p1bWJmPWMycGEuYXNzZXJ0aW9ucy9jMnBhLmluZ3JlZGllbnQudjNkaGFzaFggRCdwsZ4UjfAMUxYaGXCtYL9IxcxDrKmjuqu/P39JWpGkZmFjdGlvbngdY29tLmFudGhyb3BpYy5jbGF1ZGUucHJvdmlkZWRqcGFyYW1ldGVyc6F4H2NvbS5hbnRocm9waWMub3JpZ2luLWNvbmZpZGVuY2VndW5rbm93bmtkZXNjcmlwdGlvbnhmQ2xhdWRlIHByb3ZpZGVkIHRoaXMgZmlsZSBhdCB0aGUgcmVxdWVzdCBvZiBhIHVzZXIgYW5kIG1heSBoYXZlIGNyZWF0ZWQgb3IgbW9kaWZpZWQgdGhlIGZpbGUgY29udGVudHMubXNvZnR3YXJlQWdlbnShZG5hbWVmQ2xhdWRlcmFsbEFjdGlvbnNJbmNsdWRlZPUAAADIanVtYgAAAEBqdW1kY2JvcgARABCAAACqADibcRNjMnBhLmhhc2guZGF0YQAAAAAYYzJzaD5AX9niUaeqCP/8TXrOm/YAAACAY2JvcqVjYWxnZnNoYTI1NmNwYWRMAAAAAAAAAAAAAAAAZGhhc2hYIMs0z1Vean7ePYaFnf9s8mHmw7QD0CpBFjdjRZSl7Cm+ZG5hbWVuanVtYmYgbWFuaWZlc3RqZXhjbHVzaW9uc4GiZXN0YXJ0GQFiZmxlbmd0aBkeBAAAAj5qdW1iAAAAJ2p1bWRjMmNsABEAEIAAAKoAOJtxA2MycGEuY2xhaW0udjIAAAACD2Nib3KlY2FsZ2ZzaGEyNTZpc2lnbmF0dXJleE1zZWxmI2p1bWJmPS9jMnBhL3VybjpjMnBhOmRhNGU0YWE1LTA3MzItNDY0NC05NjVkLWMyYjkwYmM1ZmY5OS9jMnBhLnNpZ25hdHVyZWppbnN0YW5jZUlEeCx4bXA6aWlkOjBhOTUzZDgwLWNkODYtNGNmNS1hZmJiLTZkYmU1OTYyMDgyOXJjcmVhdGVkX2Fzc2VydGlvbnODomN1cmx4LXNlbGYjanVtYmY9YzJwYS5hc3NlcnRpb25zL2MycGEuaW5ncmVkaWVudC52M2RoYXNoWCBEJ3CxnhSN8AxTFhoZcK1gv0jFzEOsqaO6q78/f0lakaJjdXJseCpzZWxmI2p1bWJmPWMycGEuYXNzZXJ0aW9ucy9jMnBhLmFjdGlvbnMudjJkaGFzaFggewVRVmPePaGa2WDMRiB5PktOiXjA6shc49lMrhUohWaiY3VybHgpc2VsZiNqdW1iZj1jMnBhLmFzc2VydGlvbnMvYzJwYS5oYXNoLmRhdGFkaGFzaFggddSPggUyvJ0abTe0KhYomP0wc9D7wAF9LsMkmPdmqcd0Y2xhaW1fZ2VuZXJhdG9yX2luZm+jZG5hbWVvQW50aHJvcGljIEZpbGVzZ3ZlcnNpb25lMS4wLjBrc3BlY1ZlcnNpb25lMi40LjAAABA4anVtYgAAAChqdW1kYzJjcwARABCAAACqADibcQNjMnBhLnNpZ25hdHVyZQAAABAIY2JvctKEWQISogEmGCFZAgowggIGMIIBjaADAgECAhRA5aAK7sI50L64g/oGQgU9Z1UTADAKBggqhkjOPQQDAzBJMRcwFQYDVQQKEw5BbnRocm9waWMsIFBCQzEuMCwGA1UEAxMlQW50aHJvcGljIENvbnRlbnQgQ3JlZGVudGlhbHMgUm9vdCBDQTAeFw0yNjA4MDcxODQzNTZaFw0yODA4MDYxOTQzNTZaMEQxFzAVBgNVBAoTDkFudGhyb3BpYywgUEJDMSkwJwYDVQQDEyBBbnRocm9waWMgQ2xhdWRlIENvbnRlbnQgU2lnbmluZzBZMBMGByqGSM49AgEGCCqGSM49AwEHA0IABJh6CmvLUBgFFNU0vUKlOVtE6djd17L5SuwX0LemFisBM3dkd/3cyjxFA3Qo5S46fX0/ihY0VZ7mfb9KF703t5OjWDBWMA4GA1UdDwEB/wQEAwIHgDAVBgNVHSUEDjAMBgorBgEEAYPoXgIBMAwGA1UdEwEB/wQCMAAwHwYDVR0jBBgwFoAUzlHiBIFOZFsj+OPEz5o+nMHXXMIwCgYIKoZIzj0EAwMDZwAwZAIwMXMdFJ4BetLLVY7ORuE9noqbbAZOZn/aArXyTwFAZfKrPzxF2vPoJNf1+UCdg1XGAjBwX1zd9WGqYkqmL5SFqw1QySjr1zJfpJM9+1rdDwSPLMOPOjKuiXjoU/pUUeG9RwmhY3BhZFkNngAAAAAAAAAAAAAAAAAAAAAAAAAAAAAAAAAAAAAAAAAAAAAAAAAAAAAAAAAAAAAAAAAAAAAAAAAAAAAAAAAAAAAAAAAAAAAAAAAAAAAAAAAAAAAAAAAAAAAAAAAAAAAAAAAAAAAAAAAAAAAAAAAAAAAAAAAAAAAAAAAAAAAAAAAAAAAAAAAAAAAAAAAAAAAAAAAAAAAAAAAAAAAAAAAAAAAAAAAAAAAAAAAAAAAAAAAAAAAAAAAAAAAAAAAAAAAAAAAAAAAAAAAAAAAAAAAAAAAAAAAAAAAAAAAAAAAAAAAAAAAAAAAAAAAAAAAAAAAAAAAAAAAAAAAAAAAAAAAAAAAAAAAAAAAAAAAAAAAAAAAAAAAAAAAAAAAAAAAAAAAAAAAAAAAAAAAAAAAAAAAAAAAAAAAAAAAAAAAAAAAAAAAAAAAAAAAAAAAAAAAAAAAAAAAAAAAAAAAAAAAAAAAAAAAAAAAAAAAAAAAAAAAAAAAAAAAAAAAAAAAAAAAAAAAAAAAAAAAAAAAAAAAAAAAAAAAAAAAAAAAAAAAAAAAAAAAAAAAAAAAAAAAAAAAAAAAAAAAAAAAAAAAAAAAAAAAAAAAAAAAAAAAAAAAAAAAAAAAAAAAAAAAAAAAAAAAAAAAAAAAAAAAAAAAAAAAAAAAAAAAAAAAAAAAAAAAAAAAAAAAAAAAAAAAAAAAAAAAAAAAAAAAAAAAAAAAAAAAAAAAAAAAAAAAAAAAAAAAAAAAAAAAAAAAAAAAAAAAAAAAAAAAAAAAAAAAAAAAAAAAAAAAAAAAAAAAAAAAAAAAAAAAAAAAAAAAAAAAAAAAAAAAAAAAAAAAAAAAAAAAAAAAAAAAAAAAAAAAAAAAAAAAAAAAAAAAAAAAAAAAAAAAAAAAAAAAAAAAAAAAAAAAAAAAAAAAAAAAAAAAAAAAAAAAAAAAAAAAAAAAAAAAAAAAAAAAAAAAAAAAAAAAAAAAAAAAAAAAAAAAAAAAAAAAAAAAAAAAAAAAAAAAAAAAAAAAAAAAAAAAAAAAAAAAAAAAAAAAAAAAAAAAAAAAAAAAAAAAAAAAAAAAAAAAAAAAAAAAAAAAAAAAAAAAAAAAAAAAAAAAAAAAAAAAAAAAAAAAAAAAAAAAAAAAAAAAAAAAAAAAAAAAAAAAAAAAAAAAAAAAAAAAAAAAAAAAAAAAAAAAAAAAAAAAAAAAAAAAAAAAAAAAAAAAAAAAAAAAAAAAAAAAAAAAAAAAAAAAAAAAAAAAAAAAAAAAAAAAAAAAAAAAAAAAAAAAAAAAAAAAAAAAAAAAAAAAAAAAAAAAAAAAAAAAAAAAAAAAAAAAAAAAAAAAAAAAAAAAAAAAAAAAAAAAAAAAAAAAAAAAAAAAAAAAAAAAAAAAAAAAAAAAAAAAAAAAAAAAAAAAAAAAAAAAAAAAAAAAAAAAAAAAAAAAAAAAAAAAAAAAAAAAAAAAAAAAAAAAAAAAAAAAAAAAAAAAAAAAAAAAAAAAAAAAAAAAAAAAAAAAAAAAAAAAAAAAAAAAAAAAAAAAAAAAAAAAAAAAAAAAAAAAAAAAAAAAAAAAAAAAAAAAAAAAAAAAAAAAAAAAAAAAAAAAAAAAAAAAAAAAAAAAAAAAAAAAAAAAAAAAAAAAAAAAAAAAAAAAAAAAAAAAAAAAAAAAAAAAAAAAAAAAAAAAAAAAAAAAAAAAAAAAAAAAAAAAAAAAAAAAAAAAAAAAAAAAAAAAAAAAAAAAAAAAAAAAAAAAAAAAAAAAAAAAAAAAAAAAAAAAAAAAAAAAAAAAAAAAAAAAAAAAAAAAAAAAAAAAAAAAAAAAAAAAAAAAAAAAAAAAAAAAAAAAAAAAAAAAAAAAAAAAAAAAAAAAAAAAAAAAAAAAAAAAAAAAAAAAAAAAAAAAAAAAAAAAAAAAAAAAAAAAAAAAAAAAAAAAAAAAAAAAAAAAAAAAAAAAAAAAAAAAAAAAAAAAAAAAAAAAAAAAAAAAAAAAAAAAAAAAAAAAAAAAAAAAAAAAAAAAAAAAAAAAAAAAAAAAAAAAAAAAAAAAAAAAAAAAAAAAAAAAAAAAAAAAAAAAAAAAAAAAAAAAAAAAAAAAAAAAAAAAAAAAAAAAAAAAAAAAAAAAAAAAAAAAAAAAAAAAAAAAAAAAAAAAAAAAAAAAAAAAAAAAAAAAAAAAAAAAAAAAAAAAAAAAAAAAAAAAAAAAAAAAAAAAAAAAAAAAAAAAAAAAAAAAAAAAAAAAAAAAAAAAAAAAAAAAAAAAAAAAAAAAAAAAAAAAAAAAAAAAAAAAAAAAAAAAAAAAAAAAAAAAAAAAAAAAAAAAAAAAAAAAAAAAAAAAAAAAAAAAAAAAAAAAAAAAAAAAAAAAAAAAAAAAAAAAAAAAAAAAAAAAAAAAAAAAAAAAAAAAAAAAAAAAAAAAAAAAAAAAAAAAAAAAAAAAAAAAAAAAAAAAAAAAAAAAAAAAAAAAAAAAAAAAAAAAAAAAAAAAAAAAAAAAAAAAAAAAAAAAAAAAAAAAAAAAAAAAAAAAAAAAAAAAAAAAAAAAAAAAAAAAAAAAAAAAAAAAAAAAAAAAAAAAAAAAAAAAAAAAAAAAAAAAAAAAAAAAAAAAAAAAAAAAAAAAAAAAAAAAAAAAAAAAAAAAAAAAAAAAAAAAAAAAAAAAAAAAAAAAAAAAAAAAAAAAAAAAAAAAAAAAAAAAAAAAAAAAAAAAAAAAAAAAAAAAAAAAAAAAAAAAAAAAAAAAAAAAAAAAAAAAAAAAAAAAAAAAAAAAAAAAAAAAAAAAAAAAAAAAAAAAAAAAAAAAAAAAAAAAAAAAAAAAAAAAAAAAAAAAAAAAAAAAAAAAAAAAAAAAAAAAAAAAAAAAAAAAAAAAAAAAAAAAAAAAAAAAAAAAAAAAAAAAAAAAAAAAAAAAAAAAAAAAAAAAAAAAAAAAAAAAAAAAAAAAAAAAAAAAAAAAAAAAAAAAAAAAAAAAAAAAAAAAAAAAAAAAAAAAAAAAAAAAAAAAAAAAAAAAAAAAAAAAAAAAAAAAAAAAAAAAAAAAAAAAAAAAAAAAAAAAAAAAAAAAAAAAAAAAAAAAAAAAAAAAAAAAAAAAAAAAAAAAAAAAAAAAAAAAAAAAAAAAAAAAAAAAAAAAAAAAAAAAAAAAAAAAAAAAAAAAAAAAAAAAAAAAAAAAAAAAAAAAAAAAAAAAAAAAAAAAAAAAAAAAAAAAAAAAAAAAAAAAAAAAAAAAAAAAAAAAAAAAAAAAAAAAAAAAAAAAAAAAAAAAAAAAAAAAAAAAAAAAAAAAAAAAAAAAAAAAAAAAAAAAAAAAAAAAAAAAAAAAAAAAAAAAAAAAAAAAAAAAAAAAAAAAAAAAAAAAAAAAAAAAAAAAAAAAAAAAAAAAAAAAAAAAAAAAAAAAAAAAAAAAAAAAAAAAAAAAAAAAAAAAAAAAAAAAAAAAAAAAAAAAAAAAAAAAAAAAAAAAAAAAAAAAAAAAAAAAAAAAAAAAAAAAAAAAAAAAAAAAAAAAAAAAAAAAAAAAAAAAAAAAAAAAAAAAAAAAAAAAAAAAAAAAAAAAAAAAAAAAAAAAAAAAAAAAAAAAAAAAAAAAAAAAAAAAAAAAAAAAAAAAAAAAAAAAAAAAAAAAAAAAAAAAAAAAAAAAAAAAAAAAAAAAAAAAAAAAAAAAAAAAAAAAAAAAAAAAAAAAAAAAAAAAAAAAAAAAAAAAAAAAAAAAAAAAAAAAAAAAAAAAAAAAAAAAAAAAAAAAAAAAAAAAAAAAAAAAAAAAAAAAAAAAAAAAAAAAAAAAAAAAAAAAAAAAAAAAAAAAAAAAAAAAAAAAAAAAAAAAAAAAAAAAAAAAAAAAAAAAAAAAAAAAAAAAAAAAAAAAAAAAAAAAAAAAAAAAAAAAAAAAAAAAAAAAAAAAAAAAAAAAAAAAAAAAAAAAAAAAAAAAAAAAAAAAAAAAAAAAAAAAAAAAAAAAAAAAAAAAAAAAAAAAAAAAAAAAAAAAAAAAAAAAAAAAAAAAAAAAAAAAAAAAAAAAAAAAAAAAAAAAAAAAAAAAAAAAAAAAAAAAAAAAAAAAAAAAAAAAAAAAAAAAAAAAAAAAAAAAAAAAAAAAAAAAAAAAAAAAAAAAAAAAAAAAAAAAAAAAAAAAAAAAAAAAAAAAAAAAAAAAAAAAAAAAAAAAAAAAAAAAAAAAAAAAAAAAAAAAAAAAAAAAAAAAAAAAAAAAAAAAAAAAAAAAAAAAAAAAAAAAAAAAAAAAAAAAAAAAAAAAAAAAAAAAAAAAAAAAAAAAAAAAAAAAAAAAAAAAAAAAAAAAAAAAAAAAAAAAAAAAAAAAAAAAAAAAAAAAAAAAAAAAAAAAAAAAAAAAAAAAAAAAAAAAAAAAAAAAAAAAAAAAAAAAAAAAAAAAAAAAAAAAAAAAAAAAAAAAAAAAAAAAAAAAAAAAAAAAAAAAAAAAAAAAAAAAAAAAAAAAAAAAAAAAAAAAAAAAAAAAAAAAAAAAAAAAAAAAAAAAAAAAAAAAAAAAAAAAAAAAAAAAAAAAAAAAAAAAAAAAAAAAAAAAAAAAAAAAAAAAAAAAAAAAAAAAAAAAAAAAAAAAAAAAAAAAAAAAAAAAAAAAAAAAAAAAAAAAAAAAAAAAAAAAAAAAAAAAAAAAAAAAAAAAAAAAAAAAAAAAAAAAAAAAAAAAAAAAAAAAAAAAAAAAAAPZYQL1cuzl1dbi/suEo9HjeGU56YwUDK+Tt7CuOVM9odOfT7AMcoZ/QtRs3Lbo9Oxk/Bg//SYfsjAjGfX7i7tfWlhc=</c2pa:manifest></metadata><title>Alternativa A (Segunda mejor en Matriz: 3.60 / 5.00) - Descartada:</title><defs/><g><text fill="#000000" font-family="Arial" font-size="32.0833" font-weight="bold" lengthAdjust="spacing" textLength="1043.429" x="1202.3621" y="53.9974">Alternativa A (Segunda mejor en Matriz: 3.60 / 5.00) - Descartada:</text><text fill="#000000" font-family="Arial" font-size="32.0833" font-weight="bold" lengthAdjust="spacing" textLength="841.5295" x="1303.3118" y="92.817">Monolito Tradicional en Capas (Django + PostgreSQL)</text><!--cluster VPS--><g id="cluster_VPS"><polygon fill="#ECEFF1" points="876.7543,557.7433,899.671,534.8267,1933.2126,534.8267,1933.2126,1838.785,1910.296,1861.7017,876.7543,1861.7017,876.7543,557.7433" style="stroke:#37474F;stroke-width:2.2916666666666665;"/><line style="stroke:#37474F;stroke-width:2.2916666666666665;" x1="1910.296" x2="1933.2126" y1="557.7433" y2="534.8267"/><line style="stroke:#37474F;stroke-width:2.2916666666666665;" x1="876.7543" x2="1910.296" y1="557.7433" y2="557.7433"/><line style="stroke:#37474F;stroke-width:2.2916666666666665;" x1="1910.296" x2="1910.296" y1="557.7433" y2="1861.7017"/><text fill="#263238" font-family="Arial" font-size="32.0833" font-weight="bold" lengthAdjust="spacing" textLength="884.2655" x="953.684" y="595.6991">Servidor en la Nube (VPS &#218;nico: 2-4 vCPU, 4-8 GB RAM)</text></g><!--cluster Monolito--><g id="cluster_Monolito"><path d="M1023.421,644.8267 L1727.0902,644.8267 A17.1875,17.1875 0 0 1 1738.5485,656.285 L1754.5902,697.3962 L1866.7543,697.3962 A11.4583,11.4583 0 0 1 1878.2126,708.8546 L1878.2126,1507.6392 A11.4583,11.4583 0 0 1 1866.7543,1519.0975 L1023.421,1519.0975 A11.4583,11.4583 0 0 1 1011.9626,1507.6392 L1011.9626,656.285 A11.4583,11.4583 0 0 1 1023.421,644.8267 " fill="#FAFAFA" style="stroke:#455A64;stroke-width:3.4375;"/><line style="stroke:#455A64;stroke-width:3.4375;" x1="1011.9626" x2="1754.5902" y1="697.3962" y2="697.3962"/><text fill="#263238" font-family="Arial" font-size="32.0833" font-weight="bold" lengthAdjust="spacing" textLength="712.8359" x="1021.1293" y="680.4907">Monolito en Capas Tradicional (Django WSGI)</text></g><!--entity DB--><g id="elem_DB"><path d="M992.4835,1703.5767 C992.4835,1680.66 1266.6465,1680.66 1266.6465,1680.66 C1266.6465,1680.66 1540.8095,1680.66 1540.8095,1703.5767 L1540.8095,1801.8408 C1540.8095,1824.7575 1266.6465,1824.7575 1266.6465,1824.7575 C1266.6465,1824.7575 992.4835,1824.7575 992.4835,1801.8408 L992.4835,1703.5767 " fill="#FFF3E0" style="stroke:#E65100;stroke-width:1.1458333333333333;"/><path d="M992.4835,1703.5767 C992.4835,1726.4933 1266.6465,1726.4933 1266.6465,1726.4933 C1266.6465,1726.4933 1540.8095,1726.4933 1540.8095,1703.5767 " fill="none" style="stroke:#E65100;stroke-width:1.1458333333333333;"/><text fill="#BF360C" font-family="Arial" font-size="32.0833" lengthAdjust="spacing" textLength="180.8761" x="1015.4001" y="1766.7407">PostgreSQL</text><text fill="#BF360C" font-family="Arial" font-size="32.0833" lengthAdjust="spacing" textLength="502.4927" x="1015.4001" y="1805.5603">(Base de Datos Relacional &#218;nica)</text></g><!--entity Pres--><g id="elem_Pres"><rect fill="#F1F1F1" height="123.4725" rx="11.4583" ry="11.4583" style="stroke:#181818;stroke-width:1.1458333333333333;" width="553.0414" x="1049.7751" y="725.035"/><text fill="#000000" font-family="Arial" font-size="32.0833" lengthAdjust="spacing" textLength="334.1805" x="1072.6918" y="779.0324">Capa de Presentaci&#243;n</text><text fill="#000000" font-family="Arial" font-size="32.0833" lengthAdjust="spacing" textLength="507.208" x="1072.6918" y="817.852">(Django Views, Templates y DRF)</text></g><!--entity Logic--><g id="elem_Logic"><rect fill="#F1F1F1" height="123.4725" rx="11.4583" ry="11.4583" style="stroke:#181818;stroke-width:1.1458333333333333;" width="794.0424" x="1048.6293" y="1036.7017"/><text fill="#000000" font-family="Arial" font-size="32.0833" lengthAdjust="spacing" textLength="420.2008" x="1071.546" y="1090.6991">Capa de L&#243;gica de Negocio</text><text fill="#000000" font-family="Arial" font-size="32.0833" lengthAdjust="spacing" textLength="748.209" x="1071.546" y="1129.5186">(Servicios de Rutas, Estimaci&#243;n de ETA y Alertas)</text></g><!--entity DataAccess--><g id="elem_DataAccess"><rect fill="#F1F1F1" height="123.4725" rx="11.4583" ry="11.4583" style="stroke:#181818;stroke-width:1.1458333333333333;" width="447.8776" x="1125.4001" y="1358.6808"/><text fill="#000000" font-family="Arial" font-size="32.0833" lengthAdjust="spacing" textLength="373.0784" x="1148.3168" y="1412.6782">Capa de Acceso a Datos</text><text fill="#000000" font-family="Arial" font-size="32.0833" lengthAdjust="spacing" textLength="402.0443" x="1148.3168" y="1451.4978">(Django ORM / QuerySets)</text></g><!--entity Users--><g id="elem_Users"><ellipse cx="578.568" cy="157.8475" fill="#E3F2FD" rx="18.3333" ry="18.3333" style="stroke:#1565C0;stroke-width:1.1458333333333333;"/><path d="M578.568,176.1808 L578.568,238.0558 M548.7763,194.5142 L608.3596,194.5142 M578.568,238.0558 L548.7763,272.4308 M578.568,238.0558 L608.3596,272.4308 " fill="none" style="stroke:#1565C0;stroke-width:1.1458333333333333;"/><text fill="#0D47A1" font-family="Arial" font-size="32.0833" lengthAdjust="spacing" textLength="363.8357" x="396.6501" y="306.9491">Pasajeros y Operadores</text><text fill="#0D47A1" font-family="Arial" font-size="32.0833" lengthAdjust="spacing" textLength="204.7662" x="396.6501" y="345.7686">(Web / M&#243;vil)</text></g><!--entity Buses--><g id="elem_Buses"><ellipse cx="1676.2864" cy="157.8475" fill="#E3F2FD" rx="18.3333" ry="18.3333" style="stroke:#1565C0;stroke-width:1.1458333333333333;"/><path d="M1676.2864,176.1808 L1676.2864,238.0558 M1646.4947,194.5142 L1706.078,194.5142 M1676.2864,238.0558 L1646.4947,272.4308 M1676.2864,238.0558 L1706.078,272.4308 " fill="none" style="stroke:#1565C0;stroke-width:1.1458333333333333;"/><text fill="#0D47A1" font-family="Arial" font-size="32.0833" lengthAdjust="spacing" textLength="220.7922" x="1535.6085" y="306.9491">300 Buses SIT</text><text fill="#0D47A1" font-family="Arial" font-size="32.0833" lengthAdjust="spacing" textLength="281.3558" x="1535.6085" y="345.7686">(Dispositivos GPS)</text></g><!--entity OSM--><g id="elem_OSM"><path d="M47.3981,732.5211 C56.7394,718.5638 68.8763,721.5433 75.9421,734.8992 C84.796,719.074 94.9665,717.0596 107.5234,730.9659 C118.7367,714.1831 129.1642,717.9029 139.87,731.5061 C146.7999,715.9709 156.9589,716.383 168.4796,726.3575 C177.433,710.2724 190.4578,710.7653 198.4107,727.2762 C206.3754,710.7446 223.3614,707.3249 232.8255,725.8024 C238.3826,713.4857 249.8339,710.0181 258.7103,722.3111 C270.8493,709.4802 283.226,711.3453 290.9962,727.224 C301.9643,710.4911 312.9167,713.026 323.4282,727.6955 C331.8711,714.7735 345.1579,713.1266 353.0744,728.2519 C361.9615,715.2009 370.8231,715.8133 380.6743,727.1613 C392.6297,712.7948 408.1636,713.0303 415.4506,732.0274 C424.2376,716.9718 436.0779,718.9841 444.1905,732.7011 C455.326,716.5496 467.2618,721.1617 475.5512,735.6172 C491.0368,740.7508 496.606,750.4172 485.9548,764.8519 C502.2781,769.3381 504.5572,779.8877 492.247,791.2095 C504.3582,801.5894 499.1079,812.6006 486.0352,816.8885 C496.6753,831.2916 492.5589,839.1899 476.6262,844.5563 C465.8693,863.2482 453.2017,858.6137 442.5012,844.4976 C435.4805,859.9261 420.4451,861.673 411.4026,846.556 C405.1529,861.0366 391.9526,861.4624 382.3839,850.314 C373.338,867.4042 360.326,863.9384 350.4221,851.2345 C344.2768,867.3597 330.7971,870.9328 320.0203,855.7289 C312.362,869.5297 301.4933,869.143 291.9791,857.7985 C282.3952,872.6242 268.2915,871.724 259.1533,857.2984 C249.9591,870.7247 235.6258,870.2482 228.9252,854.6971 C219.038,866.7398 210.6519,865.4244 202.8699,852.5002 C196.564,867.0353 181.5229,871.4052 172.0753,855.6994 C160.8013,866.7926 148.0146,866.6534 141.6676,850.2506 C131.0863,863.392 115.7806,865.0512 109.1407,846.2385 C99.2205,862.3608 88.8426,862.5162 76.0226,849.5388 C65.8707,859.5362 52.3795,859.4303 48.5243,842.9895 C20.8616,832.5819 20.962,805.9805 42.3774,789.8913 C13.75,771.1634 20.1491,746.359 47.3981,732.5211 " fill="#F3E5F5" style="stroke:#7B1FA2;stroke-width:1.1458333333333333;"/><text fill="#4A148C" font-family="Arial" font-size="32.0833" lengthAdjust="spacing" textLength="239.5441" x="60.921" y="779.0324">OpenStreetMap</text><text fill="#4A148C" font-family="Arial" font-size="32.0833" lengthAdjust="spacing" textLength="394.8851" x="60.921" y="817.852">(Servidor de Mapas Libre)</text></g><g id="elem_GMN17"><path d="M1969.8793,1348.3683 L1969.8793,1492.5553 A11.4583,11.4583 0 0 0 1981.3376,1504.0137 L3452.7365,1504.0137 A11.4583,11.4583 0 0 0 3464.1948,1492.5553 L3464.1948,1359.8267 L3441.2781,1336.91 L2399.7731,1336.91 L1684.3147,1160.5662 L2381.4397,1336.91 L1981.3376,1336.91 A11.4583,11.4583 0 0 0 1969.8793,1348.3683 " fill="#FEFFDD" style="stroke:#181818;stroke-width:1.1458333333333333;"/><path d="M3441.2781,1336.91 L3441.2781,1354.0975 A5.7292,5.7292 0 0 0 3447.0073,1359.8267 L3464.1948,1359.8267 L3441.2781,1336.91 " fill="#FEFFDD" style="stroke:#181818;stroke-width:1.1458333333333333;"/><text fill="#000000" font-family="Arial" font-size="29.7917" lengthAdjust="spacing" textLength="1035.7114" x="1983.6293" y="1377.229">DESCARTADA (puntaje en matriz: 3.60 / 5.00 frente a 4.45 de la elegida):</text><text fill="#000000" font-family="Arial" font-size="29.7917" lengthAdjust="spacing" textLength="1435.5568" x="1983.6293" y="1413.2758">1. Sin empuje nativo: el mapa depender&#237;a de polling (1500 pasajeros c/5 s &#8776; 300 req/s extra en WSGI).</text><text fill="#000000" font-family="Arial" font-size="29.7917" lengthAdjust="spacing" textLength="1380.5994" x="1983.6293" y="1449.3225">2. WebSockets exigir&#237;an a&#241;adir Django Channels/ASGI, perdiendo la simplicidad que la justificaba.</text><text fill="#000000" font-family="Arial" font-size="29.7917" lengthAdjust="spacing" textLength="1446.1905" x="1983.6293" y="1485.3693">3. ETA y desv&#237;os calculados dentro del ciclo de petici&#243;n acoplan capas y comprometen QA-01 (&#8804; 15 s).</text></g><!--link Buses to Pres--><g id="link_Buses_Pres"><path d="M1648.9543,353.9912 C1634.3793,400.1454 1613.8689,453.7475 1587.171,498.16 C1534.4397,585.8392 1462.2667,660.9969 1404.173,715.2177 " fill="none" id="Buses-to-Pres" style="stroke:#181818;stroke-width:2.2916666666666665;"/><polygon fill="#181818" points="1394.121,724.5996,1415.4536,717.2281,1402.4977,716.7813,1402.9444,703.8254,1394.121,724.5996" style="stroke:#181818;stroke-width:2.2916666666666665;"/><text fill="#000000" font-family="Arial" font-size="29.7917" lengthAdjust="spacing" textLength="298.644" x="1752.0596" y="453.6873">HTTP POST s&#237;ncrono</text><text fill="#000000" font-family="Arial" font-size="29.7917" lengthAdjust="spacing" textLength="555.088" x="1623.8376" y="489.7341">(Telemetr&#237;a c/10s, ~30 req/s continuas)</text></g><!--link Users to Pres--><g id="link_Users_Pres"><path d="M724.5189,353.8308 C752.8439,375.785 781.8335,399.3204 808.0043,422.535 C843.0439,453.5871 845.1293,468.4829 881.3376,498.16 C989.2751,586.6412 1113.8727,664.1217 1206.9602,718.1134 " fill="none" id="Users-to-Pres" style="stroke:#181818;stroke-width:2.2916666666666665;"/><polygon fill="#181818" points="1218.8543,725.0121,1205.6123,706.7346,1208.9425,719.2632,1196.414,722.5934,1218.8543,725.0121" style="stroke:#181818;stroke-width:2.2916666666666665;"/><text fill="#000000" font-family="Arial" font-size="29.7917" lengthAdjust="spacing" textLength="375.2615" x="1038.2681" y="453.6873">Peticiones HTTP regulares</text><text fill="#000000" font-family="Arial" font-size="29.7917" lengthAdjust="spacing" textLength="684.5392" x="883.6293" y="489.7341">(Consulta de paraderos y polling del mapa c/5 s)</text></g><!--link Users to OSM--><g id="link_Users_OSM"><path d="M396.4668,303.2537 C339.8626,329.8142 283.8314,368.1308 251.1293,422.535 C197.8481,511.1767 212.4976,622.0813 232.183,699.5626 " fill="none" id="Users-to-OSM" style="stroke:#181818;stroke-width:2.2916666666666665;stroke-dasharray:7.0,7.0;"/><polygon fill="#181818" points="235.5689,712.8892,239.3745,690.642,232.7474,701.7837,221.6057,695.1565,235.5689,712.8892" style="stroke:#181818;stroke-width:2.2916666666666665;"/><text fill="#000000" font-family="Arial" font-size="29.7917" lengthAdjust="spacing" textLength="543.3779" x="253.421" y="472.0207">Descarga de teselas de mapa (Leaflet)</text></g><!--link Pres to Logic--><g id="link_Pres_Logic"><path d="M1349.1814,849.1287 C1370.1731,903.2579 1395.9272,969.6174 1416.9189,1023.6778 " fill="none" id="Pres-to-Logic" style="stroke:#181818;stroke-width:2.2916666666666665;"/><polygon fill="#181818" points="1421.896,1036.4954,1422.9754,1013.9509,1417.7484,1025.8141,1405.8853,1020.587,1421.896,1036.4954" style="stroke:#181818;stroke-width:2.2916666666666665;"/><text fill="#000000" font-family="Arial" font-size="29.7917" lengthAdjust="spacing" textLength="600.4592" x="1394.671" y="960.1457">Llamadas directas y s&#237;ncronas en memoria</text></g><!--link Logic to DataAccess--><g id="link_Logic_DataAccess"><path d="M1426.9835,1160.5662 C1409.8876,1216.9642 1388.3442,1287.9316 1371.1796,1344.6045 " fill="none" id="Logic-to-DataAccess" style="stroke:#181818;stroke-width:2.2916666666666665;"/><polygon fill="#181818" points="1367.1939,1357.7642,1381.9455,1340.6818,1370.5153,1346.7978,1364.3993,1335.3675,1367.1939,1357.7642" style="stroke:#181818;stroke-width:2.2916666666666665;"/><text fill="#000000" font-family="Arial" font-size="29.7917" lengthAdjust="spacing" textLength="411.4538" x="1406.1293" y="1260.354">Invocaci&#243;n s&#237;ncrona del ORM</text></g><!--link DataAccess to DB--><g id="link_DataAccess_DB"><path d="M1333.7126,1482.9579 C1319.6647,1538.76 1302.0963,1608.4984 1287.315,1667.2567 " fill="none" id="DataAccess-to-DB" style="stroke:#181818;stroke-width:2.2916666666666665;"/><polygon fill="#181818" points="1283.9606,1680.5912,1297.8819,1662.8257,1286.7559,1669.4791,1280.1025,1658.3531,1283.9606,1680.5912" style="stroke:#181818;stroke-width:2.2916666666666665;"/><text fill="#000000" font-family="Arial" font-size="29.7917" lengthAdjust="spacing" textLength="725.91" x="1312.171" y="1604.104">Transacciones SQL individuales (INSERT / SELECT)</text></g><!--SRC=[ZLRDSjis4BxpANRSYporPUhFzlYG6Ug7hcSaMnQLvD3qi2BN2cmAO01GgPj9pyqhzDoh3nq_WjuaJz85ACkADPufTQ40x8VT_Rvl9NCdP84Q5v0L0fhDC32RbLGj2YL9siJUvmIQKejodjFMaOnkiCnjhAIzn0L1f0NcM_ipJE_cMfKowwbSQVZyKTZj-FMMbgIX4GPREmL7ufpWIm3yT5_W_1H7xbFjAPsHNg-tEvtekEtNNLBhrUPngzaw3RvkNo1LzYhwe3U8uyOkUkkaVTAE_mzwXXPdQ5xFFuvRWt3tXi5nfn66Bs_engtZiFVZ3PXQtdgjW5RSZFkxy8tESQUt0n_ssoTHuqVuD5TbzchshK4dxkp2dtGRSTHy2T-E6krJdxqLbeKKvPQqH2kM217K4fepCiA2RlaqIHYXrUAFCsZLZqCuWauz3FVX4FfaKjGMCppx84TAgbnO1LEDcKY5afYxs1uMQA3MlsMbAlWPnihOkQRaUhWV15NBziPey9QqCd0FLmKnWD9aFiZQUvhnVQFLurBa-tl0G6yDQVCKrmf3w9Q632GNKpxU5wPGHd0T37K-JgeGVo88lBps4j9BaLLbvGYNvOoWzcwSmEflAL9r1it3DYnxuxS7q3uyXVCkJA9HXUDEVGbyBv-yiBUfUbFfTlbFLRzFpYygZCtvYaVt_EhYsBSmvfhPsvYArQDqrLJ1xmHzDWSmfKMHeoNNe_uatl_DmRcGNQ3Xwd4kKlzwINF5oJ2QBvnVZLkUb1OPSs2iM5JtkTN1D6BmA2Vcr5GN31KZxTuGfIaP1GXzjCeyvter6J5VroNf-uJi6eFFe0-eKlrQjN3ZnxrdHJ1Grotn3HuO9fJZkfUU7wowsEywxLQ6s6F1oCHg8Zl2ugbGnp2ZZ3mbGp7JL4LU9QCWg2HpUFZ6zm_Eu9VfT0pZgsGAPlKWKyqaCT2KSbgGrQi7XFIe4NB3_co5F7K_7HaUnT8AMNAV0Y_9RRWnMQy0_kAHDVifnqhHFIKDpsVVHUVhR2txGkMva7DUpc7XkfmUTM03Ng-_SQapTkMvkOzdCN1_FA4-f3OalCd9ih5y9YubJo373NDSi57viF0_6-xEfsBv2yjtGGl5FnP15U5YdubZW0kvLEbQAvj0dowJ7cmTzP5TZc0dI8FfkXDCBmYP2UQcn9mNQXUNoM0oPRqaW-6WDzrt5hK4CsMjMe2wMOklFqXwqMGQzNao5INxuvPykhip2Muq-uTObkrwk-FQmWvd4kSYm_spe567H4XW7vKCuSST-_sftncnZfWDnxRZPir7hT5Xu68pe3mjyFtRN-26JwK5-jrgT3bvdzU3PXruS2KglMCFyAwO2mSh0LV_yd3Gi7PBxoDAIRavYZZk07ZmPO9pK2vj8zZkhA8CC_XK-afkIxRh3PjWXlMWLL_RDIEpN3sup31FMMQPTxYqMdboKi4syGLvKJhsC5KyIIG755u6xb-5Lgnqhk0wEWmRKFl-xHzeEFtL0qu872_1Vm00]--></g></svg>